<?xml version="1.0" encoding="UTF-8"?>
<svg version="1.1" xmlns="http://www.w3.org/2000/svg" width="170" height="57">
<path d="M0 0 C13.86 0 27.72 0 42 0 C42 5.94 42 11.88 42 18 C41 19 41 19 38.77514648 19.11352539 C37.81680908 19.10828857 36.85847168 19.10305176 35.87109375 19.09765625 C34.31938477 19.09282227 34.31938477 19.09282227 32.73632812 19.08789062 C31.64771484 19.07951172 30.55910156 19.07113281 29.4375 19.0625 C27.7987793 19.05573242 27.7987793 19.05573242 26.12695312 19.04882812 C23.41791505 19.03699826 20.70898401 19.02051543 18 19 C17.97494385 19.6612085 17.9498877 20.32241699 17.92407227 21.00366211 C17.80846898 23.98182305 17.68558246 26.9596392 17.5625 29.9375 C17.52318359 30.97841797 17.48386719 32.01933594 17.44335938 33.09179688 C17.40146484 34.08115234 17.35957031 35.07050781 17.31640625 36.08984375 C17.27974854 37.00628662 17.24309082 37.92272949 17.20532227 38.86694336 C17 41 17 41 16 42 C13.48863896 42.09975032 11.01096585 42.13882183 8.5 42.125 C7.79746094 42.12886719 7.09492188 42.13273437 6.37109375 42.13671875 C1.12661378 42.12661378 1.12661378 42.12661378 0 41 C-0.08870641 37.97043757 -0.11526582 34.9631329 -0.09765625 31.93359375 C-0.09664917 31.1286145 -0.09564209 30.32363525 -0.09460449 29.4942627 C-0.08935614 26.47532739 -0.075395 23.45641233 -0.0625 20.4375 C-0.041875 13.693125 -0.02125 6.94875 0 0 Z " fill="#FFFFFF" transform="translate(7,3)"/>
<path d="M0 0 C0.804375 -0.00128906 1.60875 -0.00257812 2.4375 -0.00390625 C3.283125 -0.00003906 4.12875 0.00382812 5 0.0078125 C6.2684375 0.00201172 6.2684375 0.00201172 7.5625 -0.00390625 C8.366875 -0.00261719 9.17125 -0.00132813 10 0 C10.7425 0.00112793 11.485 0.00225586 12.25 0.00341797 C14 0.1328125 14 0.1328125 15 1.1328125 C15.09860131 2.53629985 15.13078937 3.94461727 15.1328125 5.3515625 C15.13474609 6.62580078 15.13474609 6.62580078 15.13671875 7.92578125 C15.13285156 8.81910156 15.12898438 9.71242188 15.125 10.6328125 C15.13080078 11.97279297 15.13080078 11.97279297 15.13671875 13.33984375 C15.13542969 14.18933594 15.13414063 15.03882813 15.1328125 15.9140625 C15.13168457 16.69845703 15.13055664 17.48285156 15.12939453 18.29101562 C15 20.1328125 15 20.1328125 14 21.1328125 C12.66956375 21.2311846 11.33406656 21.26359842 10 21.265625 C9.195625 21.26691406 8.39125 21.26820312 7.5625 21.26953125 C6.716875 21.26566406 5.87125 21.26179688 5 21.2578125 C4.154375 21.26167969 3.30875 21.26554687 2.4375 21.26953125 C1.633125 21.26824219 0.82875 21.26695313 0 21.265625 C-0.7425 21.26449707 -1.485 21.26336914 -2.25 21.26220703 C-4 21.1328125 -4 21.1328125 -5 20.1328125 C-5.09860131 18.72932515 -5.13078937 17.32100773 -5.1328125 15.9140625 C-5.13410156 15.06457031 -5.13539062 14.21507812 -5.13671875 13.33984375 C-5.13285156 12.44652344 -5.12898438 11.55320312 -5.125 10.6328125 C-5.12886719 9.73949219 -5.13273437 8.84617187 -5.13671875 7.92578125 C-5.13542969 7.07628906 -5.13414063 6.22679687 -5.1328125 5.3515625 C-5.13168457 4.56716797 -5.13055664 3.78277344 -5.12939453 2.97460938 C-4.88422693 -0.51509706 -3.03649131 0.00461273 0 0 Z " fill="#EB977A" transform="translate(32,22.8671875)"/>
<path d="M0 0 C3.4375 0.1875 3.4375 0.1875 4.4375 1.1875 C4.53736975 4.03085048 4.57627881 6.84447163 4.5625 9.6875 C4.56636719 10.48542969 4.57023438 11.28335937 4.57421875 12.10546875 C4.56410767 18.06089233 4.56410767 18.06089233 3.4375 19.1875 C0.76691149 19.32865161 -1.88682238 19.22997107 -4.5625 19.1875 C-6.0796199 16.15326019 -5.74689257 13.01245206 -5.75 9.6875 C-5.76224609 8.99785156 -5.77449219 8.30820312 -5.78710938 7.59765625 C-5.79238695 5.79272506 -5.68434458 3.98832158 -5.5625 2.1875 C-3.5625 0.1875 -3.5625 0.1875 0 0 Z M-1.5625 3.1875 C-1.5625 7.4775 -1.5625 11.7675 -1.5625 16.1875 C-0.9025 16.1875 -0.2425 16.1875 0.4375 16.1875 C0.4375 11.8975 0.4375 7.6075 0.4375 3.1875 C-0.2225 3.1875 -0.8825 3.1875 -1.5625 3.1875 Z " fill="#FFFFFF" transform="translate(156.5625,18.8125)"/>
<path d="M0 0 C1.32 0 2.64 0 4 0 C4.33 2.31 4.66 4.62 5 7 C5.33 4.69 5.66 2.38 6 0 C7.32 0 8.64 0 10 0 C10.125 6.625 10.125 6.625 9 10 C9.33 10.33 9.66 10.66 10 11 C10.14115161 13.67058851 10.04247107 16.32432238 10 19 C8.68 19 7.36 19 6 19 C5.67 16.69 5.34 14.38 5 12 C4.67 14.31 4.34 16.62 4 19 C2.68 19 1.36 19 0 19 C0 12.73 0 6.46 0 0 Z " fill="#FFFFFF" transform="translate(92,19)"/>
<path d="M0 0 C2.64 0 5.28 0 8 0 C9 1 9 1 9.11352539 2.76586914 C9.10828857 3.51473389 9.10305176 4.26359863 9.09765625 5.03515625 C9.09443359 5.84404297 9.09121094 6.65292969 9.08789062 7.48632812 C9.07951172 8.33646484 9.07113281 9.18660156 9.0625 10.0625 C9.05798828 10.91650391 9.05347656 11.77050781 9.04882812 12.65039062 C9.03700373 14.76695663 9.01906769 16.88348685 9 19 C7.68 19 6.36 19 5 19 C5 17.35 5 15.7 5 14 C4.34 14 3.68 14 3 14 C3 15.65 3 17.3 3 19 C2.01 19 1.02 19 0 19 C0 12.73 0 6.46 0 0 Z M3 3 C3 5.64 3 8.28 3 11 C3.66 11 4.32 11 5 11 C5 8.36 5 5.72 5 3 C4.34 3 3.68 3 3 3 Z " fill="#FFFFFF" transform="translate(60,19)"/>
<path d="M0 0 C6.6 0 13.2 0 20 0 C20 2.31 20 4.62 20 7 C13.4 7 6.8 7 0 7 C0 4.69 0 2.38 0 0 Z " fill="#EB977A" transform="translate(27,46)"/>
<path d="M0 0 C1.134375 0.020625 2.26875 0.04125 3.4375 0.0625 C4.87957941 2.94665883 4.53144887 5.47971528 4.5 8.6875 C4.49097656 9.87601563 4.48195313 11.06453125 4.47265625 12.2890625 C4.46105469 13.20429687 4.44945313 14.11953125 4.4375 15.0625 C1.4675 15.0625 -1.5025 15.0625 -4.5625 15.0625 C-4.5625 12.4225 -4.5625 9.7825 -4.5625 7.0625 C-2.9125 7.0625 -1.2625 7.0625 0.4375 7.0625 C-1.2125 6.7325 -2.8625 6.4025 -4.5625 6.0625 C-4.605221 4.39638095 -4.60313832 2.72867115 -4.5625 1.0625 C-3.5625 0.0625 -3.5625 0.0625 0 0 Z M-1.5625 10.0625 C-1.5625 10.7225 -1.5625 11.3825 -1.5625 12.0625 C-0.9025 12.0625 -0.2425 12.0625 0.4375 12.0625 C0.4375 11.4025 0.4375 10.7425 0.4375 10.0625 C-0.2225 10.0625 -0.8825 10.0625 -1.5625 10.0625 Z " fill="#FFFFFF" transform="translate(109.5625,22.9375)"/>
<path d="M0 0 C3.5 0.125 3.5 0.125 4.5 1.125 C4.54384447 2.79108987 4.5396713 4.45880554 4.5 6.125 C4.5 7.115 4.5 8.105 4.5 9.125 C4.18578929 11.12809329 3.8548954 13.12871336 3.5 15.125 C1.16705225 15.16741723 -1.16702567 15.16592937 -3.5 15.125 C-4.5 14.125 -4.5 14.125 -4.5625 11.6875 C-4.541875 10.841875 -4.52125 9.99625 -4.5 9.125 C-4.5 7.4373714 -4.52806577 5.74977726 -4.5625 4.0625 C-4.47192865 -0.19435341 -4.35093847 0.15539066 0 0 Z M-0.5 3.125 C0.5 5.125 0.5 5.125 0.5 5.125 Z M-0.5 10.125 C0.5 12.125 0.5 12.125 0.5 12.125 Z " fill="#FFFFFF" transform="translate(121.5,22.875)"/>
<path d="M0 0 C2.64 0 5.28 0 8 0 C8 2.64 8 5.28 8 8 C6.35 8 4.7 8 3 8 C3 9.32 3 10.64 3 12 C3.66 12 4.32 12 5 12 C5 11.01 5 10.02 5 9 C5.99 9 6.98 9 8 9 C8.042721 10.66611905 8.04063832 12.33382885 8 14 C7.67 14.33 7.34 14.66 7 15 C4.69 15 2.38 15 0 15 C0 10.05 0 5.1 0 0 Z M3 3 C3 3.66 3 4.32 3 5 C3.66 5 4.32 5 5 5 C5 4.34 5 3.68 5 3 C4.34 3 3.68 3 3 3 Z " fill="#FFFFFF" transform="translate(73,23)"/>
<path d="M0 0 C1.32 0 2.64 0 4 0 C4 0.99 4 1.98 4 3 C4.66 3 5.32 3 6 3 C6 3.99 6 4.98 6 6 C5.34 6 4.68 6 4 6 C4 9.96 4 13.92 4 18 C2.68 18 1.36 18 0 18 C-0.19484938 15.56288386 -0.38115178 13.12562602 -0.5625 10.6875 C-0.64661133 9.65206055 -0.64661133 9.65206055 -0.73242188 8.59570312 C-0.96581505 5.37487726 -1.03224218 3.09672655 0 0 Z " fill="#FFFFFF" transform="translate(129,20)"/>
<path d="M0 0 C1.32 0 2.64 0 4 0 C4 6.27 4 12.54 4 19 C2.68 19 1.36 19 0 19 C0 12.73 0 6.46 0 0 Z " fill="#FFFFFF" transform="translate(144,19)"/>
<path d="M0 0 C0.99 0 1.98 0 3 0 C3 1.65 3 3.3 3 5 C2.01 5 1.02 5 0 5 C0 3.35 0 1.7 0 0 Z " fill="#FFFFFF" transform="translate(85,33)"/>
</svg>
